HIERARCHY
ROOT Hips
{
	OFFSET	0.00	0.00	0.00
	CHANNELS 6 Xposition Yposition Zposition Zrotation Xrotation Yrotation
	JOINT LeftUpLeg
	{
		OFFSET	 0.126116	-0.014019	-0.065224
		CHANNELS 3 Zrotation Xrotation Yrotation
		JOINT LeftLeg
		{
			OFFSET	 0.000000	 0.000000	 0.569914
			CHANNELS 3 Zrotation Xrotation Yrotation
			JOINT LeftFoot
			{
				OFFSET	 0.000000	 0.000000	 0.544423
				CHANNELS 3 Zrotation Xrotation Yrotation
				JOINT LeftToeBase
				{
					OFFSET	 0.000000	 0.000000	 0.207117
					CHANNELS 3 Zrotation Xrotation Yrotation
					End Site
					{
						OFFSET	 0.000000	 0.000000	 0.207117
					}
				}
			}
		}
	}
	JOINT RightUpLeg
	{
		OFFSET	-0.124023	-0.008373	-0.065224
		CHANNELS 3 Zrotation Xrotation Yrotation
		JOINT RightLeg
		{
			OFFSET	 0.000000	 0.000000	 0.570047
			CHANNELS 3 Zrotation Xrotation Yrotation
			JOINT RightFoot
			{
				OFFSET	 0.000000	 0.000000	 0.544354
				CHANNELS 3 Zrotation Xrotation Yrotation
				JOINT RightToeBase
				{
					OFFSET	 0.000000	 0.000000	 0.207540
					CHANNELS 3 Zrotation Xrotation Yrotation
					End Site
					{
						OFFSET	 0.000000	 0.000000	 0.207540
					}
				}
			}
		}
	}
	JOINT Spine
	{
		OFFSET	 0.000184	-0.007763	 0.117403
		CHANNELS 3 Zrotation Xrotation Yrotation
		JOINT Spine1
		{
			OFFSET	 0.000000	 0.000000	 0.137269
			CHANNELS 3 Zrotation Xrotation Yrotation
			JOINT Spine2
			{
				OFFSET	 0.000000	 0.000000	 0.156879
				CHANNELS 3 Zrotation Xrotation Yrotation
				JOINT LeftShoulder
				{
					OFFSET	 0.080501	-0.002496	 0.160144
					CHANNELS 3 Zrotation Xrotation Yrotation
					JOINT LeftArm
					{
						OFFSET	 0.000000	 0.000000	 0.164363
						CHANNELS 3 Zrotation Xrotation Yrotation
						JOINT LeftForeArm
						{
							OFFSET	 0.000000	 0.000000	 0.364576
							CHANNELS 3 Zrotation Xrotation Yrotation
							JOINT LeftHand
							{
								OFFSET	 0.000000	 0.000000	 0.360812
								CHANNELS 3 Zrotation Xrotation Yrotation
								JOINT LeftHandIndex1
								{
									OFFSET	 0.000000	 0.000000	 0.086006
									CHANNELS 3 Zrotation Xrotation Yrotation
									JOINT LeftHandIndex2
									{
										OFFSET	 0.000000	 0.000000	 0.047236
										CHANNELS 3 Zrotation Xrotation Yrotation
										JOINT LeftHandIndex3
										{
											OFFSET	-0.004284	-0.000551	 0.038166
											CHANNELS 3 Zrotation Xrotation Yrotation
											End Site
											{
												OFFSET	-0.004284	-0.000551	 0.038166
											}
										}
									}
								}
							}
						}
					}
				}
				JOINT Neck
				{
					OFFSET	 0.000000	 0.000000	 0.176489
					CHANNELS 3 Zrotation Xrotation Yrotation
					JOINT Head
					{
						OFFSET	 0.000000	-0.001747	 0.077940
						CHANNELS 3 Zrotation Xrotation Yrotation
						End Site
						{
							OFFSET	 0.000000	-0.001747	 0.077940
						}
					}
				}
				JOINT RightShoulder
				{
					OFFSET	-0.080363	 0.000306	 0.159706
					CHANNELS 3 Zrotation Xrotation Yrotation
					JOINT RightArm
					{
						OFFSET	 0.000000	 0.000000	 0.164196
						CHANNELS 3 Zrotation Xrotation Yrotation
						JOINT RightForeArm
						{
							OFFSET	 0.000000	 0.000000	 0.365611
							CHANNELS 3 Zrotation Xrotation Yrotation
							JOINT RightHand
							{
								OFFSET	 0.000000	 0.000000	 0.360648
								CHANNELS 3 Zrotation Xrotation Yrotation
								JOINT RightHandIndex1
								{
									OFFSET	 0.000000	 0.000000	 0.069977
									CHANNELS 3 Zrotation Xrotation Yrotation
									JOINT RightHandIndex2
									{
										OFFSET	 0.000000	 0.000000	 0.052305
										CHANNELS 3 Zrotation Xrotation Yrotation
										JOINT RightHandIndex3
										{
											OFFSET	 0.009002	-0.000782	 0.042196
											CHANNELS 3 Zrotation Xrotation Yrotation
											End Site
											{
												OFFSET	 0.009002	-0.000782	 0.042196
											}
										}
									}
								}
							}
						}
					}
				}
			}
		}
	}
}
MOTION
Frames:    5
Frame Time: 0.03333334
-8.344373	-21.223330	-0.238924	-46.334910	 8.051495	 1.766010	 4.523769	-22.233180	 174.144000	-1.701754	-40.377460	-0.240696	 0.114657	 84.753460	-0.631976	-2.385699	 28.482030	-0.000633	-2.461461	-23.119210	-178.764200	-0.100696	-41.182600	 0.031007	-0.356397	 85.660000	 0.637385	 2.407686	 17.594080	-0.220471	-0.232446	 9.102938	-0.441497	 0.346107	 6.922151	-2.384536	 0.620787	 4.577473	 0.016282	-115.663000	 89.394450	-153.550000	 55.946410	 59.550660	-78.042730	-3.697536	-4.275655	-21.123950	 6.068036	-3.267726	-5.346870	-3.812334	 37.924440	-2.927599	-2.450526	 36.184240	 0.754587	-1.378229	 35.397820	-2.634230	 0.452101	 2.584494	-0.609856	 0.729700	 7.565161	-0.209532	 94.718640	 86.899150	 171.568200	-53.423310	 69.975050	 71.803340	-3.164441	-12.942580	 26.041870	-23.652810	-4.243716	 9.600677	 6.437017	 35.671460	-0.771858	 2.830251	 35.756010	-7.813440	-2.350882	 35.473990	 5.254307
-8.342253	-21.222610	-0.241582	-46.392160	 8.034679	 1.830371	 4.518596	-22.910890	 174.061900	-1.790326	-41.342830	-0.321218	 0.221175	 85.050220	-0.811104	-2.385193	 28.595840	-0.003098	-2.424247	-23.633290	-178.736600	-0.061013	-41.984910	 0.101783	-0.709203	 85.908100	 1.066954	 2.407636	 17.992320	-0.212679	-0.541380	 9.296839	-0.508607	 0.349059	 6.826289	-2.422591	 0.599245	 4.434420	 0.016465	-115.043100	 89.366960	-154.108300	 55.354730	 58.395080	-77.553890	-3.821252	-3.937713	-22.095490	 4.812440	-3.573758	-5.367554	-3.812334	 37.924440	-2.927599	-2.450526	 36.184240	 0.754587	-1.378229	 35.397820	-2.634230	 0.426603	 2.319553	-0.570566	 0.717322	 7.552956	-0.304079	 94.739620	 86.882280	 171.506500	-52.985200	 69.076180	 71.845790	-3.096408	-12.917490	 26.909690	-22.956410	-4.544552	 9.621810	 6.437017	 35.671460	-0.771858	 2.830251	 35.756010	-7.813440	-2.350882	 35.473990	 5.254307
-8.338549	-21.220890	-0.246046	-46.528990	 8.108343	 1.855330	 4.646591	-23.919570	 174.012200	-1.916108	-42.826320	-0.355321	 0.564300	 85.475280	-1.160470	-2.384871	 28.668120	-0.004657	-2.394511	-24.614420	-178.637500	-0.069522	-43.335580	 0.153553	-1.197450	 86.255290	 1.594989	 2.407499	 18.499320	-0.202730	-1.130423	 9.655337	-0.543355	 0.343453	 6.658451	-2.439289	 0.555177	 4.205925	 0.016365	-113.815400	 89.305920	-155.214800	 54.155400	 57.318770	-76.995010	-3.523897	-3.967356	-23.702490	 4.372478	-4.153924	-5.403155	-3.812334	 37.924440	-2.927599	-2.450526	 36.184240	 0.754587	-1.378229	 35.397820	-2.634230	 0.386399	 1.896737	-0.545847	 0.674009	 7.534898	-0.257025	 94.795150	 86.852540	 171.365200	-52.028100	 67.847150	 71.731610	-2.874576	-12.993780	 28.460780	-22.007170	-5.129994	 9.653453	 6.437017	 35.671460	-0.771858	 2.830251	 35.756010	-7.813440	-2.350882	 35.473990	 5.254307
-8.332953	-21.217520	-0.252353	-46.714290	 8.319953	 1.806406	 4.748761	-25.412920	 174.008000	-2.119581	-44.825790	-0.461343	 0.677685	 86.034650	-1.333172	-2.384046	 28.847020	-0.008542	-2.301208	-26.257490	-178.504400	-0.118323	-45.256370	 0.229075	-1.487634	 86.707530	 1.926063	 2.407020	 19.386740	-0.185249	-2.000943	 10.170750	-0.527387	 0.325490	 6.367532	-2.427193	 0.550373	 3.848631	 0.017940	-112.592300	 89.231530	-156.283100	 52.559710	 56.323730	-76.599070	-4.061520	-3.846520	-26.166720	 3.399158	-4.978087	-5.464004	-3.812334	 37.924440	-2.927599	-2.450526	 36.184240	 0.754587	-1.378229	 35.397820	-2.634230	 0.381238	 1.334093	-0.556487	 0.672049	 7.412414	-0.076166	 94.861030	 86.778820	 171.134200	-50.782320	 66.504220	 72.005940	-2.290796	-13.115840	 30.495800	-20.906520	-5.934437	 9.730302	 6.437017	 35.671460	-0.771858	 2.830251	 35.756010	-7.813440	-2.350882	 35.473990	 5.254307
-8.325917	-21.212880	-0.259551	-46.951020	 8.687462	 1.681334	 4.814526	-27.359420	 174.105400	-2.414390	-47.150540	-0.656394	 1.208798	 86.682820	-1.998912	-2.382872	 29.098280	-0.014012	-2.207383	-28.253110	-178.432600	-0.139313	-47.553770	 0.329279	-2.323649	 87.230420	 2.820163	 2.406228	 20.307000	-0.167010	-2.969224	 10.882050	-0.468513	 0.337926	 5.959032	-2.383717	 0.593878	 3.342720	 0.021985	-112.061200	 89.156050	-156.588000	 50.835570	 55.493640	-76.235190	-4.928894	-3.651479	-29.091570	 2.306788	-5.918907	-5.547706	-3.812334	 37.924440	-2.927599	-2.450526	 36.184240	 0.754587	-1.378229	 35.397820	-2.634230	 0.433443	 0.621222	-0.622250	 0.701340	 7.154533	 0.265322	 94.901130	 86.649410	 170.851000	-49.244080	 65.310610	 72.293290	-1.394391	-13.193860	 32.653850	-19.764090	-6.860854	 9.818007	 6.437017	 35.671460	-0.771858	 2.830251	 35.756010	-7.813440	-2.350882	 35.473990	 5.254307
